# xmcd
#
# Track frame offsets: 
#        150
#        19002
#        34532
#        56322
#        75222
#        90182
#        117687
#        142514
#        158704
#        177647
#        194817
#        211702
#        237889
#        258264
#        282597
#        304644
#        336449
#
# Disc length: 4794 seconds
#
# Revision: 1
# Processed by: cddbd v1.5.2PL0 Copyright (c) Steve Scherf et al.
# Submitted via: ExactAudioCopy v1.1
#
DISCID=dc12b811
DTITLE=Pinetop Perkins - Akella Presents - Greatest Bluesmen - vol. 17
DTITLE=CD1
DYEAR=2017
DGENRE=Blues
TTITLE0=After Hours
TTITLE1=Thinks Like a Million
TTITLE2=I'm Your Hoochie Coochie Man
TTITLE3=You don't Have to Go
TTITLE4=Yonder's Wall
TTITLE5=Love My Woman
TTITLE6=Just a Little Bit
TTITLE7=Take It Easy Baby
TTITLE8=Pine's Blues
TTITLE9=Chicken Shack
TTITLE10=Kansas City
TTITLE11=Miss Ida B
TTITLE12=Shake For Me
TTITLE13=Hoe Long, How Long Blues
TTITLE14=For You My Love
TTITLE15=Sunnyland Slim
TTITLE16=Little Girl, Litle Girl
EXTD=
EXTT0=
EXTT1=
EXTT2=
EXTT3=
EXTT4=
EXTT5=
EXTT6=
EXTT7=
EXTT8=
EXTT9=
EXTT10=
EXTT11=
EXTT12=
EXTT13=
EXTT14=
EXTT15=
EXTT16=
PLAYORDER=
